# xmcd
#
# Track frame offsets: 
#        150
#        8432
#        27817
#        43622
#        60277
#        74252
#
# Disc length: 1313 seconds
#
# Revision: 0
# Processed by: cddbd v1.5.2PL0 Copyright (c) Steve Scherf et al.
# Submitted via: ExactAudioCopy v0.99pb3
#
DISCID=3b051f06
DTITLE=Humbug - Palafico
DYEAR=1997
DGENRE=Rubber
TTITLE0=Intro
TTITLE1=First Flight
TTITLE2=Yay
TTITLE3=Puddleduck
TTITLE4=Deceiver
TTITLE5=Ignition
EXTD=
EXTT0=
EXTT1=
EXTT2=
EXTT3=
EXTT4=
EXTT5=
PLAYORDER=
